<?xml version="1.0" encoding="utf-8"?>
<!-- Generator: Adobe Illustrator 25.1.0, SVG Export Plug-In . SVG Version: 6.00 Build 0)  -->
<svg version="1.1" id="레이어_1" xmlns="http://www.w3.org/2000/svg" xmlns:xlink="http://www.w3.org/1999/xlink" x="0px"
	 y="0px" viewBox="0 0 157 25" style="enable-background:new 0 0 157 25;" xml:space="preserve">
<style type="text/css">
	.st0{fill:#FFFFFF;}
	.st1{fill:#F32735;}
</style>
<path class="st0" d="M103.9,1.2h5h1.9c0.5,0,0.8,0,1.1,0c0.3,0,0.5,0.1,0.6,0.1c0.1,0,0.3,0.1,0.5,0.2c0.4,0.1,0.7,0.3,1,0.6
	c0.3,0.3,0.5,0.6,0.6,1c0.1,0.3,0.2,0.7,0.2,1.2c0,0.5,0.1,1.3,0.1,2.5v4.5c0,0.6,0,1.1,0,1.5c0,0.4,0,0.7-0.1,1
	c0,0.3-0.1,0.5-0.2,0.7c-0.1,0.2-0.1,0.4-0.2,0.5c-0.2,0.5-0.6,0.8-1,1c-0.4,0.2-1,0.3-1.7,0.4c-0.2,0-1.2,0.1-3.1,0.1v7.5h-4.8V1.2
	z M109,12.5c0.5,0,0.7-0.1,0.8-0.3c0.1-0.2,0.2-0.6,0.2-1.3V6.6c0-0.4,0-0.7,0-0.9c0-0.2-0.1-0.4-0.1-0.5c-0.1-0.1-0.2-0.2-0.3-0.2
	c-0.1,0-0.3-0.1-0.5-0.1h-0.4v7.6H109z"/>
<path class="st0" d="M126.9,1.2h5h1.9c0.5,0,0.8,0,1.1,0c0.3,0,0.5,0.1,0.6,0.1c0.1,0,0.3,0.1,0.5,0.2c0.4,0.1,0.7,0.3,1,0.6
	c0.3,0.3,0.5,0.6,0.6,1c0.1,0.3,0.2,0.7,0.2,1.2c0,0.5,0.1,1.3,0.1,2.5v4.5c0,0.6,0,1.1,0,1.5c0,0.4,0,0.7-0.1,1
	c0,0.3-0.1,0.5-0.2,0.7c-0.1,0.2-0.1,0.4-0.2,0.5c-0.2,0.5-0.6,0.8-1,1c-0.4,0.2-1,0.3-1.7,0.4c-0.2,0-1.2,0.1-3.1,0.1v7.5h-4.8V1.2
	z M132,12.5c0.5,0,0.7-0.1,0.8-0.3c0.1-0.2,0.2-0.6,0.2-1.3V6.6c0-0.4,0-0.7,0-0.9c0-0.2-0.1-0.4-0.1-0.5c-0.1-0.1-0.2-0.2-0.3-0.2
	c-0.1,0-0.3-0.1-0.5-0.1h-0.4v7.6H132z"/>
<polygon class="st0" points="138.8,1.2 146.2,1.2 146.2,4.9 143.6,4.9 143.6,9.5 146.2,9.5 146.2,13.2 143.6,13.2 143.6,20.1 
	146.2,20.1 146.2,23.8 138.8,23.8 "/>
<polygon class="st0" points="6.3,1.2 6.3,19.7 9.6,19.7 9.6,23.7 1.8,23.7 1.8,1.2 "/>
<polygon class="st0" points="151.9,1.2 151.9,19.7 155.2,19.7 155.2,23.7 147.4,23.7 147.4,1.2 "/>
<path class="st0" d="M17.7,23.7l-0.4-3.3h-2.8l-0.3,3.3h-4.1l3-22.5h6.1l3,22.5H17.7z M14.9,16.5h2l-1-9.8L14.9,16.5z"/>
<path class="st0" d="M38.6,13.8v6c0,2.8-1.4,4.2-4.2,4.2h-2.8c-2.8,0-4.2-1.4-4.2-4.2V5.2c0-2.8,1.4-4.2,4.2-4.2h2.7
	c2.8,0,4.2,1.4,4.2,4.2v5.3h-4.4V5.7c0-0.5-0.3-0.8-0.8-0.8h-0.5c-0.5,0-0.8,0.3-0.8,0.8v13.6c0,0.5,0.3,0.8,0.8,0.8h0.6
	c0.5,0,0.8-0.3,0.8-0.8v-5.5H38.6z"/>
<path class="st0" d="M46.9,23.7l-0.4-3.3h-2.8l-0.3,3.3h-4.1l3-22.5h6.1l3,22.5H46.9z M44.1,16.5h2l-1-9.8L44.1,16.5z"/>
<path class="st0" d="M62.9,15.6v4.2c0,2.8-1.4,4.2-4.2,4.2h-2.5c-2.8,0-4.2-1.4-4.2-4.2v-4.8h4.4v4.4c0,0.5,0.3,0.8,0.8,0.8h0.4
	c0.5,0,0.8-0.3,0.8-0.8v-2.7c0-0.7-0.2-1.1-0.8-1.4l-3.9-2.9c-1.4-1-1.8-1.9-1.8-3.5V5.2C52,2.4,53.4,1,56.2,1h2.4
	c2.8,0,4.2,1.4,4.2,4.2v4.1h-4.4V5.6c0-0.5-0.3-0.8-0.8-0.8h-0.4c-0.5,0-0.8,0.3-0.8,0.8v2.1c0,0.7,0.2,1.1,0.8,1.4l3.9,2.9
	C62.5,13,62.9,13.9,62.9,15.6"/>
<path class="st0" d="M71,23.7l-0.4-3.3h-2.8l-0.3,3.3h-4.1l3-22.5h6.1l3,22.5H71z M68.3,16.5h2l-1-9.8L68.3,16.5z"/>
<path class="st0" d="M121.9,23.7l-0.4-3.3h-2.8l-0.3,3.3h-4.1l3-22.5h6.1l3,22.5H121.9z M119.2,16.5h2l-1-9.8L119.2,16.5z"/>
<rect x="77.6" y="1.1" class="st1" width="23.9" height="22.9"/>
<path class="st0" d="M83.3,5.4h2.9c0.6,0,1.2,0,1.6,0c0.4,0,0.7,0,1,0.1c0.2,0,0.4,0.1,0.5,0.2c0.1,0.1,0.3,0.2,0.4,0.3
	c0.1,0.1,0.2,0.3,0.3,0.4c0.1,0.1,0.1,0.3,0.2,0.6c0,0.2,0.1,0.5,0.1,0.8c0,0.3,0,0.7,0,1.2v7.1c0,0.5,0,0.9,0,1.2
	c0,0.3,0,0.6-0.1,0.8c0,0.2-0.1,0.4-0.2,0.5c-0.1,0.1-0.2,0.3-0.3,0.4c-0.1,0.1-0.3,0.2-0.5,0.3c-0.2,0.1-0.4,0.2-0.6,0.2
	c-0.1,0-0.2,0-0.3,0c-0.1,0-0.2,0-0.4,0c-0.2,0-0.4,0-0.7,0c-0.3,0-0.8,0-1.3,0h-2.5V5.4z M87.2,8.9V8.4c0-0.1,0-0.2,0-0.2
	c0-0.1,0-0.1,0-0.1c0,0,0-0.1,0-0.1c-0.1-0.2-0.2-0.3-0.5-0.3h-0.1c-0.1,0-0.1,0-0.2,0v9.6h0.2c0.2,0,0.3,0,0.4,0
	c0.1,0,0.2-0.1,0.2-0.2c0-0.1,0.1-0.3,0.1-0.5c0-0.2,0-0.6,0-1V8.9z"/>
<polygon class="st0" points="91.1,5.4 95.8,5.4 95.8,7.7 94.2,7.7 94.2,10.6 95.8,10.6 95.8,13 94.2,13 94.2,17.3 95.8,17.3 
	95.8,19.7 91.1,19.7 "/>
</svg>
